<?xml version="1.0" standalone="no"?>
<!DOCTYPE svg PUBLIC "-//W3C//DTD SVG 20010904//EN"
 "http://www.w3.org/TR/2001/REC-SVG-20010904/DTD/svg10.dtd">
<svg version="1.0" xmlns="http://www.w3.org/2000/svg"
 width="968.000000pt" height="969.000000pt" viewBox="0 0 968.000000 969.000000"
 preserveAspectRatio="xMidYMid meet">

<g transform="translate(0.000000,969.000000) scale(0.100000,-0.100000)"
fill="#000000" stroke="none">
<path d="M4833 9683 l4837 -3 0 -4835 0 -4835 -4838 -3 -4837 -2 4843 -3 4842
-2 0 4845 0 4845 -4842 -2 -4843 -3 4838 -2z"/>
<path d="M3792 7008 c-28 -28 -5 -88 33 -88 35 0 59 39 46 74 -8 20 -17 26
-39 26 -15 0 -33 -5 -40 -12z"/>
<path d="M5772 7008 c-28 -28 -5 -88 33 -88 35 0 59 39 46 74 -8 20 -17 26
-39 26 -15 0 -33 -5 -40 -12z"/>
<path d="M3372 6829 c-24 -12 -46 -28 -49 -35 -9 -25 -23 -15 -23 16 0 28 -3
30 -35 30 l-35 0 0 -355 0 -355 41 0 41 0 -4 139 -3 139 27 -23 c94 -80 245
-48 299 61 27 57 37 186 20 250 -35 129 -164 190 -279 133z m147 -75 c30 -25
61 -101 61 -150 0 -62 -24 -130 -57 -163 -31 -31 -37 -33 -88 -29 -97 8 -130
65 -123 209 5 112 44 159 135 159 30 0 50 -7 72 -26z"/>
<path d="M4955 6833 c-53 -19 -64 -37 -42 -67 12 -17 15 -17 51 -2 43 18 128
21 156 6 20 -11 40 -60 40 -100 l0 -28 -98 -4 c-154 -6 -217 -50 -217 -153 0
-97 63 -149 172 -143 52 3 69 9 102 36 22 18 42 32 44 32 3 0 7 -13 11 -30 5
-26 10 -30 36 -30 l31 0 -3 203 c-3 220 -7 236 -64 273 -38 25 -157 29 -219 7z
m205 -283 c0 -40 -22 -90 -49 -114 -30 -27 -122 -34 -156 -12 -34 23 -36 93
-2 123 31 29 42 31 130 32 l77 1 0 -30z"/>
<path d="M5545 6831 c-17 -10 -43 -32 -57 -50 l-27 -31 -3 42 c-3 40 -5 43
-35 46 l-33 3 0 -245 0 -246 39 0 40 0 3 164 c3 148 5 167 24 192 35 48 68 66
120 68 l49 1 3 38 3 37 -48 0 c-29 0 -60 -7 -78 -19z"/>
<path d="M6085 6833 c-53 -19 -64 -37 -42 -67 12 -17 15 -17 51 -2 43 18 128
21 156 6 20 -11 40 -60 40 -100 l0 -28 -98 -4 c-154 -6 -217 -50 -217 -153 0
-97 63 -149 172 -143 52 3 69 9 102 36 22 18 42 32 44 32 3 0 7 -13 11 -30 5
-26 10 -30 36 -30 l31 0 -3 203 c-3 220 -7 236 -64 273 -38 25 -157 29 -219 7z
m205 -283 c0 -40 -22 -90 -49 -114 -30 -27 -122 -34 -156 -12 -34 23 -36 93
-2 123 31 29 42 31 130 32 l77 1 0 -30z"/>
<path d="M3790 6595 l0 -245 40 0 40 0 0 245 0 245 -40 0 -40 0 0 -245z"/>
<path d="M3990 6810 l0 -30 120 0 c66 0 120 -3 120 -6 0 -4 -58 -90 -130 -192
-74 -107 -130 -196 -130 -209 l0 -23 180 0 180 0 0 30 0 29 -130 3 -130 3 130
184 c94 132 130 192 130 212 l0 29 -170 0 -170 0 0 -30z"/>
<path d="M4420 6810 l0 -30 120 0 c66 0 120 -3 120 -6 0 -4 -58 -90 -130 -192
-74 -107 -130 -196 -130 -209 l0 -23 180 0 180 0 0 30 0 29 -130 3 -130 3 130
184 c94 132 130 192 130 212 l0 29 -170 0 -170 0 0 -30z"/>
<path d="M5770 6595 l0 -245 40 0 40 0 0 245 0 245 -40 0 -40 0 0 -245z"/>
<path d="M6470 6600 l0 -30 1025 0 1025 0 0 30 0 30 -1025 0 -1025 0 0 -30z"/>
<path d="M8275 6156 c-134 -58 -179 -254 -84 -369 47 -57 101 -81 179 -81 79
1 132 25 182 84 102 119 60 295 -87 361 -47 22 -146 24 -190 5z"/>
<path d="M7280 5387 l0 -774 28 -42 c59 -88 192 -151 317 -151 57 0 68 3 107
35 24 19 75 59 113 89 39 30 86 68 105 85 l35 30 -137 1 -138 0 0 750 0 750
-215 0 -215 0 0 -773z"/>
<path d="M1760 6129 c-19 -12 -89 -65 -154 -118 l-119 -96 131 -3 132 -3 0
-759 0 -760 220 0 220 0 -2 783 -3 782 -33 47 c-66 90 -154 135 -282 144 -65
5 -79 3 -110 -17z"/>
<path d="M1306 6090 c-50 -46 -166 -144 -283 -238 l-83 -66 0 -698 0 -698 220
0 220 0 0 870 c0 974 6 904 -74 830z"/>
<path d="M2750 5811 c-111 -34 -182 -127 -182 -237 0 -266 394 -316 463 -59
44 161 -129 342 -281 296z"/>
<path d="M3198 5814 c-5 -4 -8 -275 -8 -601 0 -656 -4 -613 65 -698 40 -50
111 -90 196 -110 97 -23 149 -20 195 11 51 34 188 142 239 188 l40 35 -147 1
-147 0 -3 473 -3 472 -26 55 c-59 126 -131 169 -291 177 -57 3 -106 2 -110 -3z"/>
<path d="M4063 5799 c-9 -9 -11 -46 -7 -143 4 -72 7 -450 8 -841 l1 -710 215
0 215 0 0 740 0 740 -28 57 c-31 63 -76 106 -147 139 -56 27 -237 40 -257 18z"/>
<path d="M4660 5803 c-57 -10 -180 -46 -180 -53 0 -4 35 -22 78 -39 266 -111
423 -331 439 -616 6 -122 -12 -218 -60 -320 -66 -137 -184 -262 -299 -317 -26
-12 -48 -26 -48 -30 0 -7 29 -11 140 -23 60 -6 229 22 292 48 116 49 242 155
318 270 96 143 128 259 116 422 -14 209 -90 358 -253 498 -38 32 -95 71 -128
88 -120 58 -305 91 -415 72z"/>
<path d="M6427 5768 c52 -53 95 -147 130 -281 23 -92 26 -125 30 -342 5 -264
-4 -350 -53 -506 -33 -106 -64 -166 -103 -203 -17 -17 -31 -33 -31 -38 0 -14
75 -9 156 12 180 45 333 150 428 293 80 120 105 187 118 318 19 186 -9 311
-99 446 -88 132 -192 223 -321 280 -59 26 -214 63 -267 63 l-29 0 41 -42z"/>
<path d="M6195 5794 c-195 -40 -344 -122 -446 -247 -55 -68 -130 -215 -148
-289 -15 -65 -14 -282 3 -343 28 -106 96 -223 185 -318 105 -113 274 -192 434
-204 l82 -6 -48 51 c-66 72 -95 145 -134 337 -25 127 -25 510 0 640 35 175 75
275 140 343 l41 42 -44 -1 c-25 -1 -54 -3 -65 -5z"/>
<path d="M8157 5563 c-11 -11 -8 -904 3 -945 14 -48 86 -127 147 -160 55 -30
167 -53 224 -45 30 4 68 29 179 118 l141 114 -125 3 -126 3 0 447 c0 335 -3
451 -12 460 -13 13 -419 18 -431 5z"/>
<path d="M2800 5195 c-106 -24 -219 -86 -282 -154 -73 -79 -101 -138 -106
-228 -5 -93 14 -151 78 -230 87 -108 207 -170 373 -193 69 -10 210 0 259 19
21 8 17 11 -35 34 -73 33 -154 114 -193 192 -27 55 -29 69 -29 166 0 98 2 109
33 171 37 75 129 168 187 189 70 26 41 37 -108 44 -78 3 -132 0 -177 -10z"/>
</g>
</svg>
