<?xml version="1.0" standalone="no"?>
<!DOCTYPE svg PUBLIC "-//W3C//DTD SVG 20010904//EN"
 "http://www.w3.org/TR/2001/REC-SVG-20010904/DTD/svg10.dtd">
<svg version="1.0" xmlns="http://www.w3.org/2000/svg"
 width="968.000000pt" height="969.000000pt" viewBox="0 0 968.000000 969.000000"
 preserveAspectRatio="xMidYMid meet">

<g transform="translate(0.000000,969.000000) scale(0.100000,-0.100000)"
fill="#000000" stroke="none">
<path d="M0 4845 l0 -4845 4840 0 4840 0 0 4845 0 4845 -4840 0 -4840 0 0
-4845z m3858 2163 c36 -36 -4 -101 -48 -78 -37 20 -21 90 20 90 9 0 21 -5 28
-12z m1980 0 c36 -36 -4 -101 -48 -78 -37 20 -21 90 20 90 9 0 21 -5 28 -12z
m-2288 -183 c72 -37 104 -108 104 -230 0 -125 -32 -192 -109 -233 -61 -31
-176 -14 -214 32 -8 9 -17 16 -22 16 -5 0 -9 -63 -9 -140 l0 -140 -35 0 -35 0
0 355 0 355 30 0 c25 0 30 -4 36 -35 l6 -35 34 30 c19 16 47 32 62 36 15 3 32
7 37 9 17 6 88 -7 115 -20z m1568 14 c33 -6 59 -20 78 -40 l29 -30 3 -210 3
-209 -24 0 c-20 0 -26 6 -31 35 -4 19 -10 35 -15 35 -4 0 -20 -13 -36 -30 -32
-33 -114 -56 -161 -44 -82 19 -114 60 -114 143 0 41 5 56 30 84 35 41 83 56
195 64 l85 6 0 43 c0 89 -73 124 -182 87 l-56 -19 -11 23 c-6 13 -11 25 -11
27 0 10 105 40 157 45 7 1 34 -4 61 -10z m549 -3 c2 -2 1 -15 -3 -30 -5 -23
-11 -26 -49 -26 -51 0 -100 -30 -129 -80 -18 -30 -21 -56 -25 -192 l-3 -158
-34 0 -34 0 0 245 0 245 29 0 c26 0 29 -4 36 -45 l6 -46 39 40 c43 44 88 63
134 55 16 -2 31 -6 33 -8z m630 -13 c56 -26 63 -57 63 -277 l0 -196 -24 0
c-19 0 -25 7 -30 35 -4 19 -10 35 -15 35 -4 0 -20 -13 -36 -30 -32 -33 -114
-56 -161 -44 -82 19 -114 60 -114 143 0 41 5 56 30 84 35 41 83 56 195 64 l85
6 0 43 c0 89 -73 124 -182 87 l-56 -19 -11 23 c-14 31 -15 29 17 42 77 32 176
34 239 4z m-2437 -228 l0 -245 -35 0 -35 0 0 245 0 245 35 0 35 0 0 -245z
m460 214 c0 -25 -29 -73 -125 -210 -69 -98 -125 -180 -125 -183 0 -3 59 -6
130 -6 l130 0 0 -30 0 -30 -175 0 -175 0 0 26 c0 18 44 89 130 213 l130 186
-125 3 -125 3 0 29 0 30 165 0 165 0 0 -31z m430 0 c0 -25 -29 -73 -125 -210
-69 -98 -125 -180 -125 -183 0 -3 59 -6 130 -6 l130 0 0 -30 0 -30 -175 0
-175 0 0 26 c0 18 44 89 130 213 l130 186 -125 3 -125 3 0 29 0 30 165 0 165
0 0 -31z m1090 -214 l0 -245 -35 0 -35 0 0 245 0 245 35 0 35 0 0 -245z
m-2810 5 l0 -30 -1025 0 -1025 0 0 30 0 30 1025 0 1025 0 0 -30z m5490 0 l0
-30 -1025 0 -1025 0 0 30 0 30 1025 0 1025 0 0 -30z m-77 -444 c200 -72 220
-329 33 -421 -48 -24 -65 -27 -125 -23 -58 3 -78 9 -113 33 -116 82 -127 267
-21 367 58 55 146 72 226 44z m-6466 -32 c61 -17 124 -62 170 -123 l33 -43 0
-784 0 -784 -210 0 -210 0 0 760 0 760 -130 0 c-71 0 -130 4 -130 9 0 5 10 15
23 23 12 9 71 55 131 103 60 48 119 90 130 95 28 10 128 2 193 -16z m5733
-724 l0 -750 130 0 131 0 -132 -106 c-72 -59 -147 -111 -165 -116 -81 -22
-241 24 -319 93 -79 70 -75 20 -75 872 l0 757 215 0 215 0 0 -750z m-6340
-140 l0 -870 -215 0 -215 0 1 698 0 697 62 48 c34 26 101 80 148 120 47 39
113 96 148 125 34 28 64 52 67 52 2 0 4 -391 4 -870z m1513 537 c155 -66 198
-288 76 -391 -47 -40 -90 -56 -146 -56 -70 0 -114 15 -163 57 -72 62 -97 150
-69 244 35 116 191 192 302 146z m560 -7 c97 -36 161 -127 177 -253 5 -39 10
-258 10 -484 l0 -412 146 -3 145 -3 -88 -71 c-48 -39 -121 -95 -161 -124 l-73
-53 -84 12 c-124 17 -172 38 -235 101 -96 95 -90 46 -90 712 0 322 3 588 7
591 3 4 48 7 99 7 69 0 107 -5 147 -20z m859 -6 c57 -19 131 -82 161 -138 l22
-41 3 -747 2 -748 -208 0 -209 0 -5 843 c-4 610 -2 844 6 850 16 12 174 -1
228 -19z m623 -5 c123 -30 212 -78 304 -165 44 -41 96 -100 117 -131 102 -154
136 -403 80 -589 -43 -142 -192 -318 -340 -403 -117 -67 -303 -96 -456 -73
l-45 7 65 35 c79 42 210 171 259 253 63 108 83 179 88 312 8 216 -46 371 -179
511 -82 86 -145 130 -250 174 -43 18 -78 36 -78 40 0 10 109 40 183 50 77 10
149 4 252 -21z m1332 -19 c-105 -115 -160 -346 -160 -665 0 -314 54 -548 151
-656 l46 -51 -64 7 c-244 26 -422 140 -550 353 -61 100 -81 171 -87 302 -6
128 4 201 41 291 96 239 291 397 544 443 120 22 120 22 79 -24z m358 6 c158
-50 286 -151 385 -301 87 -134 95 -164 94 -360 0 -193 -9 -229 -86 -360 -114
-191 -319 -320 -557 -350 -58 -8 -61 1 -14 38 45 36 109 200 138 351 22 114
30 358 16 502 -19 209 -83 407 -154 483 l-32 34 65 -6 c36 -3 101 -17 145 -31z
m1975 -661 l0 -454 129 -3 129 -3 -142 -113 -141 -113 -90 3 c-108 5 -177 32
-243 97 -74 72 -72 55 -72 576 l0 465 215 0 215 0 0 -455z m-5505 86 l40 -7
-48 -22 c-62 -28 -147 -115 -183 -189 -25 -49 -29 -73 -32 -160 -4 -97 -3
-106 26 -168 39 -82 118 -167 190 -202 l55 -27 -29 -9 c-16 -4 -74 -11 -129
-14 -182 -10 -347 48 -452 161 -104 111 -134 214 -97 332 72 229 349 357 659
305z m9 -1309 c3 -5 -6 -74 -19 -153 -32 -187 -32 -192 4 -142 43 59 94 95
136 96 22 1 40 -5 46 -13 12 -18 6 -116 -15 -225 -8 -44 -12 -83 -10 -87 3 -4
21 -8 40 -8 51 0 41 -16 -20 -34 -61 -18 -86 -20 -86 -7 0 4 9 53 21 109 25
123 23 215 -5 220 -22 5 -78 -47 -110 -103 -23 -39 -46 -110 -63 -190 -6 -32
-13 -41 -32 -43 -22 -4 -23 -1 -17 30 36 176 79 489 68 500 -4 3 -18 8 -31 10
-14 1 -26 8 -28 15 -4 10 19 16 109 32 4 0 9 -3 12 -7z m2112 -154 c-30 -162
-45 -273 -46 -335 0 -43 0 -43 36 -43 23 0 34 -4 32 -12 -5 -14 -63 -36 -96
-37 -23 -1 -23 0 -17 67 l7 67 -39 -55 c-46 -66 -97 -96 -137 -80 -33 12 -46
45 -46 115 0 62 19 117 66 192 41 65 74 83 136 76 54 -6 55 -4 60 97 3 53 2
55 -26 60 -51 9 -41 27 21 37 32 5 62 6 67 2 5 -4 -3 -70 -18 -151z m1640 0
c-30 -162 -45 -273 -46 -335 0 -43 0 -43 36 -43 23 0 34 -4 32 -12 -5 -14 -63
-36 -96 -37 -23 -1 -23 0 -17 67 l7 67 -39 -55 c-46 -66 -97 -96 -137 -80 -33
12 -46 45 -46 115 0 62 19 117 66 192 41 65 74 83 136 76 54 -6 55 -4 60 97 3
53 2 55 -26 60 -51 9 -41 27 21 37 32 5 62 6 67 2 5 -4 -3 -70 -18 -151z m930
0 c-30 -162 -45 -273 -46 -335 0 -43 0 -43 36 -43 23 0 34 -4 32 -12 -5 -14
-63 -36 -96 -37 -23 -1 -23 0 -17 67 l7 67 -39 -55 c-46 -66 -97 -96 -137 -80
-33 12 -46 45 -46 115 0 62 19 117 66 192 41 65 74 83 136 76 54 -6 55 -4 60
97 3 53 2 55 -26 60 -51 9 -41 27 21 37 32 5 62 6 67 2 5 -4 -3 -70 -18 -151z
m878 146 c-1 -5 -16 -74 -33 -154 -16 -80 -34 -167 -38 -195 -8 -45 -11 -50
-37 -53 -25 -3 -28 -1 -23 20 3 13 18 93 32 178 36 216 33 208 58 213 28 5 42
2 41 -9z m-5744 2 c0 -3 -15 -96 -34 -208 -19 -112 -38 -229 -41 -260 l-7 -58
36 0 c57 0 44 -24 -24 -42 -33 -9 -62 -12 -65 -8 -3 5 6 70 20 144 18 101 55
355 55 383 0 1 -16 5 -35 9 -44 8 -41 27 6 35 43 8 89 10 89 5z m-1453 -37
c91 -34 138 -153 113 -289 -21 -115 -80 -198 -168 -236 -50 -22 -167 -22 -209
-1 -79 41 -122 143 -108 256 22 178 124 281 276 281 37 0 80 -5 96 -11z m6596
-3 c9 -22 -108 -120 -131 -111 -14 6 -6 17 47 66 68 63 76 67 84 45z m-5919
-162 c10 -10 16 -33 16 -62 l0 -47 45 52 c54 62 105 82 142 58 29 -20 30 -55
3 -194 -11 -58 -18 -111 -16 -118 3 -7 22 -13 43 -13 35 -1 36 -2 20 -15 -22
-16 -115 -40 -124 -31 -3 3 4 54 15 113 23 115 30 193 18 211 -22 36 -89 -15
-130 -97 -31 -62 -47 -113 -55 -175 -6 -47 -8 -51 -35 -54 -27 -3 -28 -2 -22
25 24 111 45 263 40 285 -21 98 -164 -74 -189 -228 -13 -81 -14 -84 -40 -84
-14 0 -25 3 -25 6 0 3 9 49 19 102 11 54 22 125 26 160 l7 62 -37 0 c-54 0
-39 22 28 39 31 8 59 12 63 8 3 -3 2 -31 -3 -61 -6 -31 -7 -56 -4 -55 3 0 20
19 36 42 27 38 101 87 131 87 7 0 20 -7 28 -16z m569 -12 c51 -45 -19 -144
-125 -178 -37 -11 -60 -24 -64 -36 -8 -27 5 -95 22 -109 23 -19 78 -2 118 37
39 38 55 40 37 6 -30 -56 -125 -101 -175 -83 -44 17 -59 53 -54 129 8 103 74
229 132 252 27 11 86 1 109 -18z m903 13 c47 -19 68 -70 61 -146 -14 -152
-132 -267 -232 -225 -124 52 -55 332 92 376 39 12 40 12 79 -5z m380 -33 c-10
-30 -19 -38 -46 -43 -19 -4 -40 -16 -48 -26 -27 -35 -63 -122 -73 -180 -14
-74 -21 -87 -49 -91 -21 -3 -22 -1 -16 30 15 72 46 261 46 279 0 15 -7 19 -36
19 -49 0 -40 20 17 36 80 24 82 23 74 -48 l-7 -63 30 45 c42 65 80 93 109 83
9 -3 8 -13 -1 -41z m511 24 c26 -22 28 -30 28 -93 0 -59 -5 -80 -37 -144 -20
-41 -51 -87 -68 -104 -28 -27 -37 -30 -90 -27 -66 2 -64 5 -75 -88 -10 -92
-15 -108 -36 -113 -10 -3 -21 -1 -24 4 -3 5 3 57 14 116 22 120 61 373 61 397
0 12 -10 16 -36 16 -51 0 -39 21 22 37 79 20 83 19 73 -24 -13 -59 -11 -61 24
-21 31 36 79 68 104 68 7 0 25 -11 40 -24z m336 -4 c51 -45 -19 -144 -125
-178 -37 -11 -60 -24 -64 -36 -8 -27 5 -95 22 -109 23 -19 78 -2 118 37 39 38
55 40 37 6 -17 -32 -69 -71 -110 -82 -52 -14 -95 2 -111 41 -38 90 42 306 124
339 27 11 86 1 109 -18z m763 15 c2 -2 -5 -44 -15 -93 -11 -49 -23 -122 -27
-161 l-7 -73 38 0 c24 0 35 -4 33 -12 -5 -14 -63 -36 -96 -37 -23 -1 -23 0
-17 67 l7 67 -34 -49 c-42 -62 -78 -89 -119 -89 -49 0 -69 32 -69 107 1 94 68
239 127 269 20 11 169 14 179 4z m357 -7 c10 -9 -21 -120 -34 -120 -5 0 -9 15
-9 34 0 37 -11 50 -52 60 -37 8 -62 -20 -90 -103 -25 -75 -30 -170 -9 -195 7
-9 26 -16 41 -16 28 0 110 52 110 70 0 6 5 10 10 10 41 0 -50 -96 -101 -107
-43 -8 -55 -37 -24 -57 31 -20 32 -54 5 -89 -19 -23 -87 -53 -98 -42 -9 9 9
23 38 28 47 10 56 77 10 77 -17 0 -18 4 -10 26 15 37 12 52 -9 59 -52 16 -54
152 -3 257 53 109 80 129 161 121 31 -3 60 -9 64 -13z m293 5 c47 -19 68 -70
61 -146 -14 -152 -132 -267 -232 -225 -124 52 -55 332 92 376 39 12 40 12 79
-5z m930 0 c47 -19 68 -70 61 -146 -14 -152 -132 -267 -232 -225 -124 52 -55
332 92 376 39 12 40 12 79 -5z m1210 2 c2 -2 -5 -44 -15 -93 -11 -49 -23 -122
-27 -161 l-7 -73 38 0 c24 0 35 -4 33 -12 -5 -14 -63 -36 -96 -37 -23 -1 -23
0 -17 67 l7 67 -34 -49 c-42 -62 -78 -89 -119 -89 -49 0 -69 32 -69 107 1 94
68 239 127 269 20 11 169 14 179 4z m-382 -17 c-1 -8 -11 -69 -23 -135 -12
-66 -23 -132 -26 -147 -4 -26 -2 -28 31 -28 54 0 37 -22 -29 -39 -31 -8 -59
-12 -62 -9 -4 3 2 51 13 105 11 54 23 124 27 156 l6 57 -30 0 c-49 0 -38 27
17 43 56 18 78 17 76 -3z m554 -312 c4 -35 -39 -68 -63 -48 -32 27 -8 83 33
78 21 -2 28 -9 30 -30z"/>
<path d="M3403 6780 c-71 -17 -96 -64 -96 -180 0 -132 30 -182 118 -195 51 -8
102 18 129 64 30 52 34 174 8 234 -30 67 -87 95 -159 77z"/>
<path d="M5000 6578 c-45 -13 -67 -33 -75 -70 -20 -87 64 -133 162 -89 50 23
73 62 73 126 l0 45 -62 -1 c-35 0 -79 -5 -98 -11z"/>
<path d="M6130 6578 c-45 -13 -67 -33 -75 -70 -20 -87 64 -133 162 -89 50 23
73 62 73 126 l0 45 -62 -1 c-35 0 -79 -5 -98 -11z"/>
<path d="M5027 3643 c-48 -54 -87 -210 -68 -274 19 -64 61 -48 116 46 28 49
65 155 65 189 0 42 -84 71 -113 39z"/>
<path d="M6667 3643 c-48 -54 -87 -210 -68 -274 19 -64 61 -48 116 46 28 49
65 155 65 189 0 42 -84 71 -113 39z"/>
<path d="M7597 3643 c-48 -54 -87 -210 -68 -274 19 -64 61 -48 116 46 28 49
65 155 65 189 0 42 -84 71 -113 39z"/>
<path d="M1284 3801 c-109 -66 -163 -267 -107 -393 26 -57 59 -80 117 -80 60
0 110 26 146 76 89 120 84 352 -9 400 -41 22 -109 20 -147 -3z"/>
<path d="M2581 3628 c-21 -22 -55 -111 -49 -128 6 -19 108 40 124 72 32 63
-28 107 -75 56z"/>
<path d="M3523 3650 c-69 -28 -123 -233 -77 -298 18 -26 59 -29 91 -7 52 37
92 206 63 275 -7 16 -16 30 -20 30 -5 0 -14 2 -22 4 -7 3 -23 1 -35 -4z"/>
<path d="M4381 3613 c-36 -43 -87 -161 -97 -220 -6 -37 -4 -40 22 -50 56 -21
66 -23 83 -13 31 16 74 128 79 206 7 116 -29 148 -87 77z"/>
<path d="M4711 3628 c-21 -22 -55 -111 -49 -128 6 -19 108 40 124 72 32 63
-28 107 -75 56z"/>
<path d="M5417 3643 c-48 -54 -87 -210 -68 -274 22 -73 74 -38 135 91 45 95
57 164 30 178 -42 22 -80 23 -97 5z"/>
<path d="M6163 3650 c-69 -28 -123 -233 -77 -298 18 -26 59 -29 91 -7 52 37
92 206 63 275 -7 16 -16 30 -20 30 -5 0 -14 2 -22 4 -7 3 -23 1 -35 -4z"/>
<path d="M7093 3650 c-69 -28 -123 -233 -77 -298 18 -26 59 -29 91 -7 52 37
92 206 63 275 -7 16 -16 30 -20 30 -5 0 -14 2 -22 4 -7 3 -23 1 -35 -4z"/>
<path d="M8207 3643 c-48 -54 -87 -210 -68 -274 22 -73 74 -37 137 96 43 90
54 159 28 173 -42 22 -80 23 -97 5z"/>
</g>
</svg>
