<?xml version="1.0" standalone="no"?>
<!DOCTYPE svg PUBLIC "-//W3C//DTD SVG 20010904//EN"
 "http://www.w3.org/TR/2001/REC-SVG-20010904/DTD/svg10.dtd">
<svg version="1.0" xmlns="http://www.w3.org/2000/svg"
 width="968.000000pt" height="969.000000pt" viewBox="0 0 968.000000 969.000000"
 preserveAspectRatio="xMidYMid meet">

<g transform="translate(0.000000,969.000000) scale(0.100000,-0.100000)"
fill="#000000" stroke="none">
<path d="M0 4845 l0 -4845 4840 0 4840 0 0 4845 0 4845 -4840 0 -4840 0 0
-4845z m3858 2163 c17 -17 15 -63 -3 -78 -22 -18 -64 -4 -71 24 -12 50 40 88
74 54z m1980 0 c17 -17 15 -63 -3 -78 -22 -18 -64 -4 -71 24 -12 50 40 88 74
54z m-2270 -190 c64 -43 87 -102 87 -223 0 -85 -4 -107 -24 -148 -35 -72 -86
-102 -172 -102 -59 0 -73 4 -111 31 l-43 30 3 -138 4 -138 -41 0 -41 0 0 356
0 355 33 -3 c27 -2 33 -8 35 -30 4 -34 13 -35 38 -7 50 56 161 64 232 17z
m1589 13 c71 -33 77 -55 81 -283 l4 -198 -31 0 c-27 0 -32 4 -37 30 -7 34 -16
37 -35 13 -41 -48 -156 -67 -218 -35 -71 36 -100 123 -64 192 30 57 88 82 205
88 l98 5 0 34 c0 44 -24 90 -52 99 -35 11 -104 6 -144 -11 -46 -19 -43 -20
-55 12 -12 33 -4 42 58 59 70 18 141 17 190 -5z m513 -5 c0 -44 -9 -56 -40
-49 -44 8 -112 -29 -138 -76 -20 -35 -22 -53 -22 -195 l0 -156 -40 0 -40 0 0
245 0 245 29 0 c32 0 41 -14 41 -63 l0 -32 32 39 c37 46 78 65 136 66 38 0 42
-2 42 -24z m617 5 c71 -33 77 -55 81 -283 l4 -198 -31 0 c-27 0 -32 4 -37 30
-7 34 -16 37 -35 13 -41 -48 -156 -67 -218 -35 -71 36 -100 123 -64 192 30 57
88 82 205 88 l98 5 0 34 c0 44 -24 90 -52 99 -35 11 -104 6 -144 -11 -46 -19
-43 -20 -55 12 -12 33 -4 42 58 59 70 18 141 17 190 -5z m-2417 -236 l0 -245
-40 0 -40 0 0 245 0 245 40 0 40 0 0 -245z m460 217 c0 -20 -38 -82 -130 -213
l-131 -184 131 -3 130 -3 0 -29 0 -30 -175 0 -175 0 0 30 c0 21 33 75 121 202
67 94 123 178 126 185 4 10 -21 13 -116 13 l-121 0 0 30 0 30 170 0 170 0 0
-28z m430 0 c0 -20 -38 -82 -130 -213 l-131 -184 131 -3 130 -3 0 -29 0 -30
-175 0 -175 0 0 30 c0 21 33 75 121 202 67 94 123 178 126 185 4 10 -21 13
-116 13 l-121 0 0 30 0 30 170 0 170 0 0 -28z m1090 -217 l0 -245 -40 0 -40 0
0 245 0 245 40 0 40 0 0 -245z m-2820 10 l0 -35 -1025 0 -1025 0 0 35 0 35
1025 0 1025 0 0 -35z m5490 0 l0 -35 -1025 0 -1025 0 0 35 0 35 1025 0 1025 0
0 -35z m-66 -449 c49 -20 116 -85 137 -131 50 -109 -10 -252 -126 -301 -57
-25 -150 -23 -202 4 -103 53 -153 191 -108 300 19 45 79 110 120 128 40 17
137 18 179 0z m-744 -746 l0 -750 130 0 c72 0 130 -4 130 -8 0 -5 -34 -35 -76
-68 -43 -32 -102 -80 -132 -106 -32 -28 -69 -50 -89 -54 -50 -10 -142 2 -206
26 -65 24 -154 100 -173 147 -11 26 -14 176 -14 798 l0 765 215 0 215 0 0
-750z m-5698 703 c61 -27 150 -111 168 -158 6 -17 10 -309 10 -796 l0 -769
-215 0 -215 0 0 760 0 759 -136 3 -137 3 121 97 c178 143 172 140 267 133 53
-4 98 -14 137 -32z m-632 -853 l0 -870 -220 0 -220 0 0 698 0 697 78 62 c113
92 228 188 285 239 27 24 55 44 63 44 12 0 14 -133 14 -870z m1519 530 c57
-29 108 -91 127 -156 57 -196 -145 -352 -334 -257 -79 39 -115 92 -120 177 -5
79 10 127 56 178 77 85 177 106 271 58z m544 5 c65 -23 129 -88 158 -161 24
-59 24 -60 27 -526 l3 -467 147 -3 147 -3 -101 -82 c-167 -135 -211 -163 -258
-163 -60 0 -167 25 -215 50 -51 25 -116 91 -142 142 -18 35 -19 66 -19 632 0
466 3 596 13 600 24 11 193 -2 240 -19z m891 -24 c68 -33 113 -79 144 -148 16
-35 17 -97 17 -778 l0 -740 -215 0 -215 0 -1 645 c-1 355 -2 733 -4 842 -1
108 1 202 5 208 6 9 35 11 106 8 85 -4 107 -9 163 -37z m618 4 c108 -30 163
-59 240 -125 186 -156 262 -318 262 -555 1 -150 -20 -223 -99 -350 -101 -163
-262 -281 -435 -320 -77 -17 -235 -21 -300 -7 l-34 8 54 31 c219 123 360 357
360 595 0 218 -82 401 -241 538 -70 61 -117 88 -221 130 -32 12 -58 26 -58 30
0 7 113 41 180 54 60 11 198 -2 292 -29z m1538 25 c221 -35 391 -147 516 -340
79 -122 94 -179 94 -355 -1 -173 -13 -224 -90 -359 -107 -189 -325 -330 -543
-352 -73 -7 -84 1 -44 33 12 10 32 32 44 48 30 44 91 224 108 323 21 118 20
478 0 598 -32 184 -82 311 -147 373 -48 46 -45 48 62 31z m-232 -48 c-102
-109 -157 -338 -158 -652 0 -180 13 -297 46 -428 31 -122 63 -191 113 -241
l41 -41 -39 0 c-59 0 -183 26 -243 51 -172 72 -323 231 -395 416 -23 58 -27
88 -31 204 -5 156 7 221 63 335 82 168 226 298 399 361 54 19 161 41 210 42
l39 1 -45 -48z m2326 -198 c14 -14 16 -69 16 -459 l0 -444 126 -3 126 -3 -118
-95 c-178 -144 -175 -142 -262 -135 -98 8 -166 35 -228 89 -88 77 -84 49 -84
590 l0 476 204 0 c173 0 207 -2 220 -16z m-5491 -360 c36 -8 34 -17 -7 -32
-43 -16 -127 -90 -166 -148 -67 -96 -79 -270 -26 -377 40 -83 106 -151 183
-189 61 -30 64 -32 42 -42 -13 -5 -89 -10 -169 -10 -134 -1 -151 1 -228 27
-134 46 -239 141 -293 262 -32 73 -24 179 21 263 62 117 198 212 351 247 62
14 224 14 292 -1z m-216 -1541 c-20 -120 -38 -237 -41 -260 l-6 -43 35 0 c57
0 43 -25 -25 -44 -33 -9 -64 -15 -69 -12 -4 3 0 45 10 93 23 113 59 357 59
404 0 33 -3 37 -30 43 -51 10 -36 33 28 43 31 5 61 6 66 2 5 -5 -6 -100 -27
-226z m223 220 c0 -10 -11 -83 -25 -163 -14 -80 -25 -147 -25 -149 0 -3 14 14
31 37 35 48 103 92 142 92 18 0 32 -9 44 -26 16 -25 16 -32 -5 -148 -30 -165
-30 -166 14 -166 54 0 37 -22 -32 -41 -32 -9 -64 -14 -69 -12 -7 2 -5 33 7 91
25 119 34 237 19 246 -53 33 -161 -131 -179 -272 -5 -43 -12 -56 -28 -62 -40
-15 -42 0 -19 115 29 143 60 388 52 409 -4 9 -17 16 -32 16 -32 0 -34 28 -2
34 12 3 31 7 42 9 46 10 65 7 65 -10z m2133 10 c2 -5 -9 -75 -25 -158 -15 -82
-31 -201 -34 -262 l-7 -113 32 0 c19 0 31 -5 31 -13 0 -15 -98 -50 -113 -40
-5 3 -7 31 -4 65 l5 58 -27 -38 c-69 -94 -133 -116 -175 -59 -35 48 -28 138
17 230 21 42 53 89 74 107 34 30 40 32 89 26 l53 -6 6 53 c10 81 5 101 -27
105 -41 5 -35 30 10 37 20 4 42 8 47 10 19 6 44 5 48 -2z m1640 0 c2 -5 -9
-75 -25 -158 -15 -82 -31 -201 -34 -262 l-7 -113 32 0 c19 0 31 -5 31 -13 0
-15 -98 -50 -113 -40 -5 3 -7 31 -4 65 l5 58 -27 -38 c-69 -94 -133 -116 -175
-59 -35 48 -28 138 17 230 21 42 53 89 74 107 34 30 40 32 89 26 l53 -6 6 53
c10 81 5 101 -27 105 -41 5 -35 30 10 37 20 4 42 8 47 10 19 6 44 5 48 -2z
m930 0 c2 -5 -9 -75 -25 -158 -15 -82 -31 -201 -34 -262 l-7 -113 32 0 c19 0
31 -5 31 -13 0 -15 -98 -50 -113 -40 -5 3 -7 31 -4 65 l5 58 -27 -38 c-69 -94
-133 -116 -175 -59 -35 48 -28 138 17 230 21 42 53 89 74 107 34 30 40 32 89
26 l53 -6 6 53 c10 81 5 101 -27 105 -41 5 -35 30 10 37 20 4 42 8 47 10 19 6
44 5 48 -2z m851 -1 c2 -4 -11 -77 -29 -162 -18 -85 -36 -176 -40 -202 -7 -45
-9 -48 -36 -48 -16 0 -29 5 -29 11 0 12 57 349 65 387 4 17 12 22 35 22 16 0
31 -4 34 -8z m-7176 -51 c27 -14 50 -37 69 -68 25 -43 28 -57 28 -138 0 -49
-6 -109 -13 -132 -20 -68 -72 -133 -132 -167 -49 -28 -64 -31 -136 -31 -71 0
-85 3 -122 28 -86 56 -115 188 -73 328 52 171 231 256 379 180z m6576 10 c16
-17 13 -21 -52 -74 -52 -42 -72 -53 -81 -44 -8 8 4 27 51 74 34 35 63 63 64
63 0 0 8 -8 18 -19z m-6100 -172 c-1 -8 -5 -34 -9 -59 l-7 -45 42 48 c46 52
86 77 123 77 31 0 46 -19 54 -64 l5 -35 43 44 c30 30 55 46 81 51 72 13 89
-24 68 -143 -8 -43 -17 -104 -21 -135 l-6 -58 37 0 c24 0 36 -4 34 -12 -5 -13
-123 -47 -136 -39 -6 4 0 52 14 121 27 130 28 213 3 218 -50 9 -142 -142 -161
-265 -10 -60 -15 -72 -33 -75 -41 -8 -42 -1 -18 115 27 132 28 220 0 225 -47
9 -135 -137 -159 -264 -10 -50 -18 -68 -33 -74 -38 -14 -43 -3 -28 62 18 78
42 251 36 261 -2 4 -17 7 -34 7 -50 0 -33 25 29 42 64 18 77 17 76 -3z m730 7
c87 -36 24 -153 -106 -197 l-53 -18 -3 -48 c-2 -39 1 -53 17 -67 17 -16 25
-17 53 -7 18 6 47 25 64 42 43 41 63 29 28 -16 -48 -63 -144 -93 -191 -60 -71
50 -35 248 62 348 40 41 72 47 129 23z m929 3 c38 -17 57 -60 57 -126 0 -108
-55 -209 -134 -247 -55 -26 -93 -21 -132 18 -32 32 -34 39 -34 98 0 82 21 144
67 198 54 63 119 85 176 59z m251 -15 c0 -10 -4 -37 -8 -59 l-7 -40 30 45 c34
50 68 79 93 80 25 0 28 -12 16 -53 -9 -30 -16 -37 -36 -37 -54 0 -112 -99
-137 -235 -8 -44 -16 -61 -29 -63 -42 -8 -43 1 -20 116 12 61 24 132 26 159 3
48 3 48 -29 51 -52 5 -40 28 25 45 67 18 77 16 76 -9z m468 -22 l-3 -41 39 39
c152 152 227 -71 90 -271 -44 -65 -78 -83 -138 -75 l-48 6 -6 -32 c-3 -18 -8
-63 -12 -100 -6 -59 -9 -67 -31 -73 -25 -6 -46 1 -39 14 7 10 74 419 78 471 3
44 2 45 -30 48 -17 2 -32 9 -32 16 0 12 105 47 125 41 6 -1 9 -20 7 -43z m482
34 c87 -36 24 -153 -106 -197 l-53 -18 -3 -48 c-2 -39 1 -53 17 -67 17 -16 25
-17 53 -7 18 6 47 25 64 42 43 41 63 29 28 -16 -48 -63 -144 -93 -191 -60 -71
50 -35 248 62 348 40 41 72 47 129 23z m786 -1 c0 -5 -9 -55 -19 -110 -11 -55
-21 -125 -23 -155 l-3 -55 33 -3 c49 -5 38 -26 -23 -46 -56 -17 -77 -15 -70 7
2 7 6 34 9 61 l6 49 -28 -39 c-67 -93 -127 -116 -173 -68 -21 22 -24 35 -23
94 0 58 6 80 37 143 20 41 53 89 72 105 33 29 37 30 119 29 50 -1 86 -6 86
-12z m359 -1 c3 -2 -2 -30 -10 -61 -16 -63 -39 -83 -39 -35 0 38 -23 62 -60
62 -36 0 -54 -25 -80 -109 -26 -84 -27 -162 -1 -185 17 -15 25 -16 54 -7 18 6
47 25 62 41 28 30 55 39 55 20 0 -21 -81 -89 -119 -101 -45 -13 -52 -32 -21
-49 22 -12 27 -58 9 -92 -11 -20 -65 -48 -94 -48 -27 0 -16 27 14 33 36 8 58
41 40 63 -6 8 -18 14 -26 14 -14 0 -13 11 4 56 2 6 -7 18 -21 27 -36 24 -50
83 -36 155 13 75 62 174 102 208 30 25 37 26 97 20 36 -4 67 -9 70 -12z m294
5 c38 -17 57 -60 57 -126 0 -108 -55 -209 -134 -247 -55 -26 -93 -21 -132 18
-32 32 -34 39 -34 98 0 82 21 144 67 198 54 63 119 85 176 59z m930 0 c38 -17
57 -60 57 -126 0 -108 -55 -209 -134 -247 -55 -26 -93 -21 -132 18 -32 32 -34
39 -34 98 0 82 21 144 67 198 54 63 119 85 176 59z m1207 -4 c0 -5 -9 -55 -19
-110 -11 -55 -21 -125 -23 -155 l-3 -55 33 -3 c49 -5 38 -26 -23 -46 -56 -17
-77 -15 -70 7 2 7 6 34 9 61 l6 49 -28 -39 c-67 -93 -127 -116 -173 -68 -21
22 -24 35 -23 94 0 58 6 80 37 143 20 41 53 89 72 105 33 29 37 30 119 29 50
-1 86 -6 86 -12z m-380 -6 c0 -6 -9 -54 -19 -107 -11 -54 -23 -123 -26 -154
l-7 -58 37 0 c24 0 35 -4 33 -12 -6 -16 -128 -52 -139 -41 -5 5 -2 33 6 63 8
30 19 88 25 129 6 42 12 88 15 104 4 25 2 27 -30 27 -52 0 -45 26 13 43 58 18
92 20 92 6z m534 -285 c9 -4 16 -18 16 -34 0 -62 -72 -83 -78 -23 -2 23 3 35
20 47 26 19 22 18 42 10z"/>
<path d="M3369 6765 c-38 -21 -59 -82 -59 -171 0 -126 41 -184 130 -184 89 0
134 60 134 180 1 90 -23 154 -65 176 -35 18 -106 17 -140 -1z"/>
<path d="M4985 6571 c-51 -21 -76 -99 -45 -136 18 -22 69 -32 114 -24 58 10
98 55 104 118 l5 51 -79 -1 c-44 0 -88 -4 -99 -8z"/>
<path d="M6115 6571 c-51 -21 -76 -99 -45 -136 18 -22 69 -32 114 -24 58 10
98 55 104 118 l5 51 -79 -1 c-44 0 -88 -4 -99 -8z"/>
<path d="M4998 3583 c-40 -84 -52 -219 -23 -243 22 -18 41 -6 82 53 35 52 70
137 79 195 5 34 3 39 -21 50 -14 7 -39 12 -56 12 -27 0 -33 -6 -61 -67z"/>
<path d="M6638 3583 c-40 -84 -52 -219 -23 -243 22 -18 41 -6 82 53 35 52 70
137 79 195 5 34 3 39 -21 50 -14 7 -39 12 -56 12 -27 0 -33 -6 -61 -67z"/>
<path d="M7568 3583 c-40 -84 -52 -219 -23 -243 22 -18 41 -6 82 53 35 52 70
137 79 195 5 34 3 39 -21 50 -14 7 -39 12 -56 12 -27 0 -33 -6 -61 -67z"/>
<path d="M1295 3805 c-81 -44 -125 -128 -133 -252 -6 -98 12 -158 59 -198 60
-50 156 -26 216 53 83 109 85 314 5 386 -30 26 -108 32 -147 11z"/>
<path d="M2586 3631 c-18 -20 -60 -121 -53 -128 11 -10 61 12 93 42 51 48 46
105 -10 105 -7 0 -21 -8 -30 -19z"/>
<path d="M3491 3615 c-73 -84 -78 -285 -7 -285 38 0 83 44 102 103 22 64 25
177 5 200 -23 29 -65 21 -100 -18z"/>
<path d="M4395 3626 c-30 -30 -67 -103 -94 -185 -27 -83 -27 -87 10 -100 51
-18 76 -13 97 17 63 88 82 292 27 292 -9 0 -27 -11 -40 -24z"/>
<path d="M4716 3631 c-18 -20 -60 -121 -53 -128 11 -10 61 12 93 42 51 48 46
105 -10 105 -7 0 -21 -8 -30 -19z"/>
<path d="M5388 3583 c-39 -82 -52 -219 -24 -242 23 -20 42 -8 79 51 42 66 74
143 83 194 5 36 3 41 -21 52 -14 7 -39 12 -56 12 -27 0 -33 -6 -61 -67z"/>
<path d="M6131 3615 c-73 -84 -78 -285 -7 -285 38 0 83 44 102 103 22 64 25
177 5 200 -23 29 -65 21 -100 -18z"/>
<path d="M7061 3615 c-73 -84 -78 -285 -7 -285 38 0 83 44 102 103 22 64 25
177 5 200 -23 29 -65 21 -100 -18z"/>
<path d="M8178 3583 c-39 -82 -52 -219 -24 -242 23 -20 42 -8 79 51 42 66 74
143 83 194 5 36 3 41 -21 52 -14 7 -39 12 -56 12 -27 0 -33 -6 -61 -67z"/>
</g>
</svg>
