<?xml version="1.0" standalone="no"?>
<!DOCTYPE svg PUBLIC "-//W3C//DTD SVG 20010904//EN"
 "http://www.w3.org/TR/2001/REC-SVG-20010904/DTD/svg10.dtd">
<svg version="1.0" xmlns="http://www.w3.org/2000/svg"
 width="968.000000pt" height="472.000000pt" viewBox="0 0 968.000000 472.000000"
 preserveAspectRatio="xMidYMid meet">

<g transform="translate(0.000000,472.000000) scale(0.100000,-0.100000)"
fill="#000000" stroke="none">
<path d="M4833 4713 l4837 -3 0 -2350 0 -2350 -4837 -3 -4838 -2 4843 -3 4842
-2 0 2360 0 2360 -4842 -2 -4843 -3 4838 -2z"/>
<path d="M3792 4198 c-28 -28 -5 -88 33 -88 35 0 59 39 46 74 -8 20 -17 26
-39 26 -15 0 -33 -5 -40 -12z"/>
<path d="M5772 4198 c-28 -28 -5 -88 33 -88 35 0 59 39 46 74 -8 20 -17 26
-39 26 -15 0 -33 -5 -40 -12z"/>
<path d="M3372 4019 c-24 -12 -46 -28 -49 -35 -9 -25 -23 -15 -23 16 0 28 -3
30 -35 30 l-35 0 0 -355 0 -355 41 0 40 0 -3 139 c-3 140 -3 140 17 121 77
-72 227 -62 285 20 46 64 65 202 40 291 -35 124 -165 184 -278 128z m153 -82
c73 -73 68 -249 -8 -313 -27 -23 -38 -26 -84 -22 -95 8 -129 67 -121 211 7
113 45 157 137 157 35 0 49 -6 76 -33z"/>
<path d="M4955 4023 c-53 -19 -64 -37 -42 -67 12 -17 15 -17 51 -2 46 19 134
20 158 2 21 -16 38 -58 38 -95 l0 -29 -98 -4 c-154 -6 -217 -50 -217 -153 0
-97 63 -149 172 -143 52 3 69 9 102 36 22 18 42 32 45 32 2 0 6 -12 8 -27 2
-24 8 -29 36 -31 l33 -3 -3 203 c-3 221 -7 237 -64 274 -38 25 -157 29 -219 7z
m205 -283 c0 -40 -22 -90 -49 -114 -30 -27 -122 -34 -156 -12 -34 23 -36 93
-2 123 31 29 42 31 130 32 l77 1 0 -30z"/>
<path d="M5545 4021 c-17 -10 -43 -32 -57 -50 l-27 -31 -3 42 c-3 40 -5 43
-35 46 l-33 3 0 -245 0 -246 39 0 40 0 3 164 c3 148 5 167 24 192 35 48 68 66
120 68 l49 1 3 38 3 37 -48 0 c-29 0 -60 -7 -78 -19z"/>
<path d="M6085 4023 c-53 -19 -64 -37 -42 -67 12 -17 15 -17 51 -2 46 19 134
20 158 2 21 -16 38 -58 38 -95 l0 -29 -98 -4 c-154 -6 -217 -50 -217 -153 0
-97 63 -149 172 -143 52 3 69 9 102 36 22 18 42 32 45 32 2 0 6 -12 8 -27 2
-24 8 -29 36 -31 l33 -3 -3 203 c-3 221 -7 237 -64 274 -38 25 -157 29 -219 7z
m205 -283 c0 -40 -22 -90 -49 -114 -30 -27 -122 -34 -156 -12 -34 23 -36 93
-2 123 31 29 42 31 130 32 l77 1 0 -30z"/>
<path d="M3790 3785 l0 -245 40 0 40 0 0 245 0 245 -40 0 -40 0 0 -245z"/>
<path d="M3990 4000 l0 -30 120 0 c66 0 120 -3 120 -6 0 -4 -58 -90 -130 -192
-77 -109 -130 -195 -130 -209 l0 -23 180 0 180 0 0 30 0 29 -130 3 -130 3 130
184 c94 132 130 192 130 212 l0 29 -170 0 -170 0 0 -30z"/>
<path d="M4420 4000 l0 -30 120 0 c66 0 120 -3 120 -6 0 -4 -58 -90 -130 -192
-74 -107 -130 -196 -130 -209 l0 -23 180 0 180 0 0 30 0 29 -130 3 -130 3 130
184 c94 132 130 192 130 212 l0 29 -170 0 -170 0 0 -30z"/>
<path d="M5770 3785 l0 -245 40 0 40 0 0 245 0 245 -40 0 -40 0 0 -245z"/>
<path d="M6470 3790 l0 -30 1025 0 1025 0 0 30 0 30 -1025 0 -1025 0 0 -30z"/>
<path d="M8263 3339 c-127 -63 -164 -250 -72 -362 47 -57 101 -81 179 -81 213
1 318 245 169 393 -71 71 -190 93 -276 50z"/>
<path d="M7280 2578 l0 -771 25 -42 c49 -85 194 -155 320 -155 57 0 68 3 107
35 24 19 75 59 113 89 39 30 86 68 105 85 l35 30 -137 1 -138 0 0 750 0 750
-215 0 -215 0 0 -772z"/>
<path d="M1760 3319 c-19 -12 -89 -65 -154 -118 l-119 -96 131 -3 132 -3 0
-759 0 -760 220 0 220 0 -2 783 -3 782 -33 47 c-66 90 -154 135 -282 144 -65
5 -79 3 -110 -17z"/>
<path d="M1297 3273 c-83 -74 -273 -233 -317 -265 l-40 -30 0 -699 0 -699 220
0 220 0 0 870 c0 764 -2 870 -15 870 -8 0 -39 -21 -68 -47z"/>
<path d="M2750 3001 c-111 -34 -182 -127 -182 -237 0 -266 394 -316 463 -59
44 161 -128 342 -281 296z"/>
<path d="M3198 3004 c-5 -4 -8 -275 -8 -601 0 -656 -4 -613 65 -698 40 -50
111 -90 196 -110 97 -23 149 -20 195 11 51 34 188 142 239 188 l40 35 -147 1
-147 0 -3 473 -3 472 -26 55 c-59 126 -131 169 -291 177 -57 3 -106 2 -110 -3z"/>
<path d="M4063 2989 c-9 -9 -11 -48 -7 -148 4 -75 7 -453 8 -841 l1 -705 215
0 215 0 0 740 0 740 -28 57 c-31 63 -76 106 -147 139 -55 27 -237 40 -257 18z"/>
<path d="M4617 2985 c-76 -15 -137 -36 -137 -46 0 -3 35 -21 78 -38 266 -111
423 -331 439 -616 6 -127 -12 -221 -66 -330 -68 -136 -190 -262 -301 -311 -22
-10 -40 -21 -40 -25 0 -12 87 -23 180 -22 228 0 439 117 570 316 96 143 128
259 116 422 -14 209 -90 358 -253 498 -85 73 -160 110 -287 142 -110 28 -193
31 -299 10z"/>
<path d="M6427 2959 c52 -55 96 -149 130 -282 23 -92 26 -125 30 -342 5 -264
-4 -350 -53 -506 -33 -106 -64 -166 -103 -203 -17 -17 -31 -33 -31 -38 0 -14
75 -9 156 12 180 45 333 150 428 293 76 115 104 186 117 304 20 175 -4 305
-79 431 -128 214 -326 342 -572 368 l-65 6 42 -43z"/>
<path d="M6195 2984 c-195 -40 -344 -122 -446 -247 -55 -68 -130 -215 -148
-289 -15 -65 -14 -282 3 -343 28 -106 96 -223 185 -318 105 -113 274 -192 434
-204 l82 -6 -48 51 c-94 102 -144 289 -154 583 -12 343 49 623 160 737 l41 42
-44 -1 c-25 -1 -54 -3 -65 -5z"/>
<path d="M8157 2753 c-11 -11 -8 -904 3 -945 14 -48 86 -127 147 -160 55 -30
167 -53 224 -45 30 4 68 29 179 118 l141 114 -125 3 -126 3 0 447 c0 335 -3
451 -12 460 -13 13 -419 18 -431 5z"/>
<path d="M2805 2386 c-128 -30 -223 -82 -297 -165 -66 -73 -92 -131 -96 -218
-5 -94 14 -151 78 -230 87 -108 207 -170 373 -193 69 -10 210 0 259 19 21 8
17 11 -35 35 -72 32 -151 111 -192 191 -28 55 -30 68 -30 166 0 98 2 109 33
171 37 75 129 168 187 189 70 26 39 38 -110 44 -73 3 -130 0 -170 -9z"/>
</g>
</svg>
